<svg viewBox="0 0 448 512">
    <path d="M 438.6 150.6 c 12.5 -12.5 12.5 -32.8 0 -45.3 l -96 -96 c -12.5 -12.5 -32.8 -12.5 -45.3 0 s -12.5 32.8 0 45.3 L 338.7 96 L 32 96 C 14.3 96 0 110.3 0 128 s 14.3 32 32 32 l 306.7 0 l -41.4 41.4 c -12.5 12.5 -12.5 32.8 0 45.3 s 32.8 12.5 45.3 0 l 96 -96 z"/>
    <path style="fill-opacity: 0.5;" d="M 105.3 502.6 c 12.5 12.5 32.8 12.5 45.3 0 s 12.5 -32.8 0 -45.3 L 109.3 416 L 416 416 c 17.7 0 32 -14.3 32 -32 s -14.3 -32 -32 -32 l -306.7 0 l 41.4 -41.4 c 12.5 -12.5 12.5 -32.8 0 -45.3 s -32.8 -12.5 -45.3 0 l -96 96 c -12.5 12.5 -12.5 32.8 0 45.3 l 96 96 z"/>
</svg>